<svg xmlns="http://www.w3.org/2000/svg" xmlns:xlink="http://www.w3.org/1999/xlink" viewBox="0 0 466.43 130.47"><defs><style>.cls-1{font-size:54.61px;font-family:GillSansMT, Gill Sans MT;}.cls-2{fill:url(#linear-gradient);}.cls-3{fill:url(#linear-gradient-2);}.cls-4{fill:url(#linear-gradient-3);}.cls-5{fill:url(#linear-gradient-4);}.cls-6{fill:url(#linear-gradient-5);}.cls-7{fill:url(#linear-gradient-6);}.cls-8{fill:url(#linear-gradient-7);}.cls-9{fill:url(#linear-gradient-8);}.cls-10{fill:url(#linear-gradient-9);}.cls-11{font-size:6.31px;font-family:CooperBlack, Cooper Black;}</style><linearGradient id="linear-gradient" x1="146.75" y1="22.5" x2="199.77" y2="62.46" gradientUnits="userSpaceOnUse"><stop offset="0" stop-color="#731922"/><stop offset="0.01" stop-color="#781922"/><stop offset="0.08" stop-color="#931a21"/><stop offset="0.16" stop-color="#a91a21"/><stop offset="0.26" stop-color="#ba1b20"/><stop offset="0.38" stop-color="#c51b20"/><stop offset="0.54" stop-color="#cc1b20"/><stop offset="1" stop-color="#ce1b20"/></linearGradient><linearGradient id="linear-gradient-2" x1="194.47" y1="17.42" x2="249.12" y2="58.6" xlink:href="#linear-gradient"/><linearGradient id="linear-gradient-3" x1="254.8" y1="22.5" x2="307.83" y2="62.46" xlink:href="#linear-gradient"/><linearGradient id="linear-gradient-4" x1="305.95" y1="12.99" x2="360.33" y2="53.97" xlink:href="#linear-gradient"/><linearGradient id="linear-gradient-5" x1="364.39" y1="17.57" x2="403.66" y2="47.17" xlink:href="#linear-gradient"/><linearGradient id="linear-gradient-6" x1="397.48" y1="8.34" x2="461.04" y2="56.23" xlink:href="#linear-gradient"/><linearGradient id="linear-gradient-7" x1="31.02" y1="53.84" x2="52.76" y2="93.06" gradientUnits="userSpaceOnUse"><stop offset="0.23" stop-color="#731922"/><stop offset="0.41" stop-color="#901a21"/><stop offset="0.66" stop-color="#b21a21"/><stop offset="0.86" stop-color="#c71b20"/><stop offset="1" stop-color="#ce1b20"/></linearGradient><linearGradient id="linear-gradient-8" x1="34.14" y1="76.03" x2="109.38" y2="143.78" gradientUnits="userSpaceOnUse"><stop offset="0.2" stop-color="#731922"/><stop offset="0.34" stop-color="#911a21"/><stop offset="0.5" stop-color="#ac1a21"/><stop offset="0.66" stop-color="#bf1b20"/><stop offset="0.83" stop-color="#ca1b20"/><stop offset="1" stop-color="#ce1b20"/></linearGradient><linearGradient id="linear-gradient-9" x1="22.01" y1="47.79" x2="85.08" y2="24.83" gradientUnits="userSpaceOnUse"><stop offset="0.69" stop-color="#ce1b20"/><stop offset="0.74" stop-color="#c61b20"/><stop offset="0.83" stop-color="#b11a21"/><stop offset="0.93" stop-color="#8e1a21"/><stop offset="1" stop-color="#731922"/></linearGradient></defs><g id="Layer_2" data-name="Layer 2"><g id="Guides"><text class="cls-1" transform="translate(140.74 115.06) scale(0.98 1)">IT SOLUTION</text><path class="cls-2" d="M200.49,61.19c0,.51-.36.87-1.07,1.07a49.64,49.64,0,0,1-7.91.34,54.72,54.72,0,0,1-7.82-.34,2.31,2.31,0,0,1-1.83-1.92q-1.44-6.12-2.25-6.55t-11.4-.3q-7.23,0-7.7.39-.72.67-1.61,4.55c-.54,2.35-1.19,3.63-2,3.83a72.81,72.81,0,0,1-9.7.34c-4.33,0-6.5-.42-6.5-1.24s3.2-9.79,9.61-27.17q10.43-28.2,11.31-31c.34-1.08.74-1.62,1.19-1.62.77,0,2,.07,3.55.21S169.2,2,170,2s1.89-.05,3.38-.15,2.6-.15,3.34-.15c.53,0,1,.47,1.48,1.4q2.09,4.47,12.17,30.62Q200.48,60,200.49,61.19ZM170.34,22.45q-.9,1.88-3,8.12c-1.53,4.43-2.3,7-2.3,7.79,0,.51.85.79,2.55.85.88,0,2.33.08,4.34.08s2.91-.23,3.1-.68a1.55,1.55,0,0,0,.09-.59q0-1.41-2-7.74A60,60,0,0,0,170.34,22.45Z"/><path class="cls-3" d="M243.91,63q-3.66,0-9.53-.17l-9.53-.21-12.71-.17c-1.28,0-3.1,0-5.49-.17q-1.23-.23-1.23-1.32,0-4.63.15-13.89t.15-13.88q0-4.94-.3-14.78t-.3-14.78c0-.62.43-.93,1.28-.93s2.12,0,3.8.12,3,.13,3.77.13,2.32-.05,4.17-.15,3.23-.15,4.16-.15q.64,0,.6.81l0,.55q-.51,8-1.15,24l0,11.23q0,5.45,0,8l.08,1c0,.34.24.55.64.64h1.11c2.55,0,6.37-.14,11.46-.4s8.91-.41,11.46-.41c.76,0,1.15.33,1.15,1a64.07,64.07,0,0,1-1.07,12.54c-.14.74-.44,1.18-.89,1.32A8.26,8.26,0,0,1,243.91,63Z"/><path class="cls-4" d="M308.55,61.19c0,.51-.36.87-1.07,1.07a49.64,49.64,0,0,1-7.91.34,54.72,54.72,0,0,1-7.82-.34,2.29,2.29,0,0,1-1.83-1.92c-1-4.08-1.72-6.26-2.25-6.55s-4.26-.3-11.4-.3q-7.23,0-7.7.39-.72.67-1.61,4.55c-.54,2.35-1.2,3.63-2,3.83a72.81,72.81,0,0,1-9.7.34c-4.33,0-6.5-.42-6.5-1.24s3.2-9.79,9.61-27.17q10.41-28.2,11.31-31c.34-1.08.74-1.62,1.19-1.62.77,0,1.95.07,3.55.21s2.8.22,3.59.22,1.9-.05,3.39-.15,2.6-.15,3.33-.15c.54,0,1,.47,1.49,1.4q2.08,4.47,12.16,30.62Q308.55,60,308.55,61.19ZM278.39,22.45c-.59,1.25-1.6,4-3,8.12-1.54,4.43-2.3,7-2.3,7.79,0,.51.85.79,2.55.85.88,0,2.33.08,4.34.08s2.9-.23,3.1-.68a1.55,1.55,0,0,0,.09-.59q0-1.41-2-7.74A58,58,0,0,0,278.39,22.45Z"/><path class="cls-5" d="M368.38,32.1a31.85,31.85,0,0,1-8,21.69q-7.09,8.2-19.94,8.64-2.47.07-13.57.08-2.08,0-6.27-.13t-6.27-.12c-.83,0-1.24-.33-1.24-1q0-4.68.36-14.06t.37-14q0-4.89-.37-14.65t-.36-14.61c0-.6.41-1,1.24-1.06a99,99,0,0,1,9.91-.34q13.1,0,17,.38,10.08,1,15.78,5.1a25.89,25.89,0,0,1,8.46,10.72A31.78,31.78,0,0,1,368.38,32.1Zm-16.29,0a16.4,16.4,0,0,0-4.29-11.73,14.84,14.84,0,0,0-11.48-4.72q-6.56,0-6.55,1.74,0,2.5-.09,7.55c-.06,3.36-.08,5.87-.08,7.55s0,4.11.08,7.42.09,5.79.09,7.46c0,1.22,2.26,1.83,6.8,1.83q7.35,0,11.57-4.89Q352.09,39.67,352.09,32.1Z"/><path class="cls-6" d="M392.24,30.83q0,5,.25,15.1c.17,6.71.26,11.75.26,15.09,0,.57-.13.92-.39,1.07-.05,0-.42.08-1.1.17a65,65,0,0,1-7.4.34,55.11,55.11,0,0,1-7.91-.34q-1.23-.25-1.23-1.32c0,.45.12-2,.38-7.49q.76-17.22.76-22.62c0-3-.1-7.59-.29-13.65s-.3-10.62-.3-13.65c0-.63.32-.94,1-.94.88,0,2.2,0,4,.13s3.1.13,4,.13,2.18-.05,3.89-.13,3-.13,3.89-.13,1.23.31,1.23.94q0,4.55-.48,13.65C392.4,23.24,392.24,27.8,392.24,30.83Z"/><path class="cls-7" d="M457.81,3.91q0,4.84-.4,14.56T457,33.08v28c0,.76-.41,1.15-1.23,1.15s-1.71,0-3.08.08-2.41.09-3.09.09-1.84-.06-3.31-.17-2.58-.17-3.32-.17q-.77,0-1.83-1.41-3.06-4.12-13.78-18.28-2.92-4-8.93-11.66a1.69,1.69,0,0,0-.64-.51,1.21,1.21,0,0,0-.34.94q0,4.94.28,14.8t.28,14.8c0,1-.39,1.49-1.15,1.49H402.15c-.83,0-1.24-.44-1.24-1.32q0-4.59.45-13.87t.44-13.9q0-4.89-.4-14.63T401,4c0-.62.55-.93,1.66-.93,1.64,0,3.67-.12,6.08-.34.56-.06,1.68-.24,3.36-.56a20.46,20.46,0,0,1,3.36-.38c.34,0,.86.48,1.57,1.45l15.86,21.73q2.13,2.92,6.42,8.59,1.06,1.32,1.83,1.32c.37,0,.55-1.11.55-3.32q0-4.47-.48-13.44t-.49-13.48c0-1,.29-1.57.89-1.57q2.55,0,7.7-.22T457,2.59Q457.81,2.59,457.81,3.91Z"/><rect x="63.54" y="62.01" width="4.04" height="8.71"/><polygon points="67.53 60.84 63.5 60.84 63.5 57.05 67.58 57.05 67.53 60.84"/><rect x="71.97" y="57.49" width="4.72" height="13.24"/><path d="M80.83,57.82v3H69.06V57l10.87-.09A.89.89,0,0,1,80.83,57.82Z"/><path class="cls-8" d="M94.07,51.57s-9.4-20.08-38.3-11.12c0,0-14.86,4.74-29.72,28.83S3.87,112.5,0,113.92c0,0,15.06,4.28,38.87-14.65s43.76-28.8,43.76-28.8-25-.23-30.53-4.13-8-12.77-1.65-19.87C57.2,38.88,82.26,33.14,94.07,51.57Z"/><path class="cls-9" d="M0,114s22.79,4,46.81-22.73C70.49,64.88,98.92,69.67,98.92,69.67s15.47,2,27.07,29.9c0,0,2.24,6.67,8.75,16.05,0,0-25.44.84-37.66-12s-21.75-26-38.53-13.16A191.19,191.19,0,0,1,40.38,105.2C28.47,113.6,3.87,116,0,114Z"/><path class="cls-10" d="M66.26,0,28.5,65.62S61.27,16.47,95.26,52.81Z"/><text class="cls-11" transform="translate(48.48 78.56) scale(1.01 1)"> </text></g></g></svg>